<?xml version="1.0" encoding="UTF-8"?>
<svg width="139px" height="138px" viewBox="0 0 139 138" version="1.1" xmlns="http://www.w3.org/2000/svg" xmlns:xlink="http://www.w3.org/1999/xlink">
    <!-- Generator: Sketch 48 (47235) - http://www.bohemiancoding.com/sketch -->
    <title>noun_979367_cc copy 5</title>
    <desc>Created with Sketch.</desc>
    <defs></defs>
    <g id="Desktop-HD" stroke="none" stroke-width="1" fill="none" fill-rule="evenodd" transform="translate(-890.000000, -10462.000000)">
        <g id="noun_979367_cc-copy-5" transform="translate(959.500000, 10531.036667) rotate(-360.000000) translate(-959.500000, -10531.036667) translate(890.000000, 10462.000000)" fill="#FFC107">
            <g id="Group-2">
                <path d="M107.805996,0 L30.5011454,0 C13.6827519,0 0,13.4549859 0,29.993414 C0,44.2130194 10.118328,56.1444444 23.6442984,59.2131307 L23.6442984,137.750009 L114.662837,90.9870159 L114.662837,59.2131307 C128.188813,56.1444445 138.30713,44.2130196 138.30713,29.993414 C138.30713,13.4549861 124.624387,0 107.805996,0 Z M107.805996,46.5014208 C98.5491517,46.5014208 91.0185388,39.0961583 91.0185388,29.993414 L77.3048446,29.993414 C77.3048446,44.2130194 87.4231734,56.1444444 100.949143,59.2131307 L100.949143,82.817481 L37.3579896,115.489268 L37.3579896,59.2131307 C50.8839621,56.1444445 61.0022909,44.2130196 61.0022909,29.993414 L47.2885967,29.993414 C47.2885967,39.0961581 39.7579808,46.5014208 30.5011454,46.5014208 C21.2443101,46.5014208 13.7136942,39.0961583 13.7136942,29.993414 C13.7136942,20.8906697 21.2443101,13.4854116 30.5011454,13.4854116 L107.805996,13.4854116 C117.062828,13.4854116 124.593447,20.8906726 124.593447,29.993414 C124.593447,39.0961553 117.062829,46.5014208 107.805996,46.5014208 Z" id="Shape" fill-rule="nonzero"></path>
                <rect id="Rectangle" x="50.493079" y="63.4659729" width="12.4403238" height="47.5994797" rx="2"></rect>
                <rect id="Rectangle-Copy" x="76.1055104" y="63.4659729" width="12.4403238" height="40.3874373" rx="1"></rect>
            </g>
        </g>
    </g>
</svg>